Motion_pl10
version=1
nRows=6
nColumns=43
inDegrees=yes
endheader
time	pelvis_tilt	pelvis_list	pelvis_rotation	pelvis_tx	pelvis_ty	pelvis_tz	hip_flexion_r	hip_adduction_r	hip_rotation_r	knee_angle_r	ankle_angle_r	subtalar_angle_r	mtp_angle_r	hip_flexion_l	hip_adduction_l	hip_rotation_l	knee_angle_l	ankle_angle_l	subtalar_angle_l	mtp_angle_l	lumbar_extension	lumbar_bending	lumbar_rotation	neck_flexion	neck_lateral_bending	neck_rotation	arm_flex_r	arm_add_r	arm_rot_r	elbow_flex_r	pro_sup_r	wrist_flex_r	wrist_dev_r	hand_finger_flex_r	arm_flex_l	arm_add_l	arm_rot_l	elbow_flex_l	pro_sup_l	wrist_flex_l	wrist_dev_l	hand_finger_flex_l
      0.98250000	     -1.35098757	      6.55654079	     86.83177960	     -0.00067918	      0.44018168	      0.40058333	     92.94054833	     -7.69662723	      3.79194018	   -143.98438748	     22.48410650	      9.45976185	     24.08500767	     92.19995427	    -11.97428392	      5.11145946	   -141.35716442	     18.01924875	     27.28290317	     37.65464826	    -69.84157317	     -1.84962767	      1.06328007	     27.35686389	      2.64734290	     -3.04379347	    125.84581941	    -13.20890605	     26.59930475	     53.02372493	     99.77205740	      5.60460551	    -11.35598739	     -2.22319546	    116.74961486	    -19.48825542	     30.27930176	     51.78516331	    116.74312594	    -39.38725493	     -9.36330205	      3.37415829
      0.98500000	     -1.25352459	      6.30823059	     86.90532859	     -0.00095315	      0.44149040	      0.40031158	     92.89215300	     -7.83639154	      3.70352343	   -143.75256882	     22.58629091	      9.75662077	     24.36539692	     92.24263570	    -11.84108734	      5.02855673	   -141.16576775	     18.09414700	     26.74607535	     37.81556995	    -69.71032186	     -1.73393975	      1.13939195	     27.38873870	      2.70775904	     -3.04589017	    126.10810493	    -13.68460632	     27.45108384	     53.25768834	     99.54168716	      5.67803556	    -11.34168461	     -2.53055571	    116.87268044	    -19.57553166	     30.65017664	     51.83305143	    116.61250554	    -39.34003164	     -9.18142952	      3.38493123
      0.98750000	     -1.21891051	      6.14794745	     86.87923324	     -0.00102613	      0.44293115	      0.39994437	     92.78666997	     -7.82033349	      3.70068780	   -143.55201002	     22.55959192	      9.78044655	     24.37769907	     92.16707995	    -11.82086550	      4.99032241	   -140.96330785	     18.07604137	     26.72674442	     37.82234772	    -69.61479721	     -1.71983271	      1.12579956	     27.38181116	      2.71759350	     -3.05712507	    126.08844180	    -13.68247041	     27.50303363	     53.24912240	     99.50846140	      5.67796693	    -11.33688016	     -2.55414661	    116.82860842	    -19.59881088	     30.66349716	     51.77501914	    116.58798555	    -39.33906782	     -9.15070258	      3.38403046
      0.99000000	     -1.18190964	      5.96559630	     86.86017336	     -0.00107694	      0.44442055	      0.39967390	     92.70543295	     -7.81865893	      3.65252150	   -143.31878559	     22.53759965	      9.82490090	     24.39261404	     92.09683511	    -11.80695602	      4.93921495	   -140.73410124	     18.06769422	     26.68777347	     37.83073378	    -69.52267366	     -1.71311089	      1.11038087	     27.35349464	      2.73093432	     -3.06217886	    126.10909026	    -13.70465089	     27.57897006	     53.24938223	     99.48019030	      5.68939354	    -11.32882540	     -2.57414287	    116.82676975	    -19.61629370	     30.69436342	     51.73861614	    116.56265638	    -39.32932056	     -9.12370684	      3.38565045
      0.99250000	     -1.13770504	      5.77597892	     86.84051008	     -0.00110711	      0.44589855	      0.39941834	     92.63987761	     -7.81808186	      3.59717901	   -143.09188037	     22.51813114	      9.87969903	     24.40900150	     92.03466154	    -11.79429373	      4.88952345	   -140.50900954	     18.07014193	     26.62733466	     37.84072641	    -69.42741531	     -1.70689129	      1.11043143	     27.33670955	      2.75537692	     -3.05996000	    126.14728330	    -13.73850375	     27.67734995	     53.24164341	     99.45787800	      5.71246543	    -11.31462714	     -2.58947961	    116.83440060	    -19.63050334	     30.74753716	     51.69833318	    116.53354814	    -39.30680111	     -9.09423084	      3.39056568
      0.99500000	     -0.98301925	      5.47807841	     86.80384135	     -0.00114444	      0.44702360	      0.39933974	     92.69867875	     -7.78638022	      3.44309780	   -142.86173075	     22.51531519	     10.24555950	     24.59967079	     92.16999909	    -11.77258833	      4.85380047	   -140.35034204	     18.21133017	     25.92497644	     37.97415020	    -69.26345232	     -1.68077581	      1.31120380	     27.51561854	      2.94084849	     -2.99152055	    126.53161768	    -14.09838442	     28.43463544	     53.20618581	     99.19384840	      5.88983445	    -11.24122499	     -2.74119231	    117.08080880	    -19.63939192	     31.21081693	     51.57900780	    116.21743397	    -39.17521898	     -8.88126945	      3.40038573
